<svg xmlns="http://www.w3.org/2000/svg" width="145" height="42" viewBox="0 0 145 42" fill="none">
    <path d="M55.3301 31.8528V10.08H59.9477V31.8528H55.3301Z" fill="#3673F5"/>
    <path d="M66.1607 31.8528V10.08H70.9895L83.1521 24.5952V10.08H87.8904V31.8528H83.0616L70.8386 17.2771V31.8528H66.1607Z" fill="#3673F5"/>
    <path d="M99.3597 31.8528C98.5348 31.8528 97.7803 31.6512 97.0962 31.248C96.4323 30.8448 95.8991 30.3105 95.4967 29.6453C95.0943 28.9598 94.8931 28.2038 94.8931 27.3773V14.5555C94.8931 13.7289 95.0943 12.983 95.4967 12.3177C95.8991 11.6323 96.4323 11.088 97.0962 10.6848C97.7803 10.2816 98.5348 10.08 99.3597 10.08H116.562V14.7974H100.567C100.245 14.7974 99.9935 14.8781 99.8124 15.0393C99.6515 15.2006 99.571 15.4526 99.571 15.7953V26.1374C99.571 26.46 99.6515 26.712 99.8124 26.8934C99.9935 27.0547 100.245 27.1353 100.567 27.1353H116.562V31.8528H99.3597Z" fill="#3673F5"/>
    <path d="M127.737 31.8528C126.932 31.8528 126.188 31.6512 125.504 31.248C124.82 30.8448 124.276 30.3005 123.874 29.615C123.472 28.9296 123.27 28.1837 123.27 27.3773V14.5555C123.27 13.7289 123.472 12.983 123.874 12.3177C124.276 11.6323 124.82 11.088 125.504 10.6848C126.188 10.2816 126.932 10.08 127.737 10.08H140.533C141.338 10.08 142.073 10.2816 142.736 10.6848C143.421 11.088 143.964 11.6323 144.366 12.3177C144.789 12.983 145 13.7289 145 14.5555V27.3773C145 28.1837 144.789 28.9296 144.366 29.615C143.964 30.3005 143.421 30.8448 142.736 31.248C142.073 31.6512 141.338 31.8528 140.533 31.8528H127.737ZM127.948 27.1353H140.262V14.7974H127.948V27.1353Z" fill="#3673F5"/>
    <path d="M0 6.72C0 3.00865 3.00268 0 6.70668 0H35.2101C38.9141 0 41.9167 3.00865 41.9167 6.72V35.28C41.9167 38.9914 38.9141 42 35.2101 42H6.70668C3.00268 42 0 38.9914 0 35.28V6.72Z" fill="#3673F5"/>
    <path d="M7.96417 28.98L12.1894 13.02H16.7667L12.5415 28.98H7.96417Z" fill="white"/>
    <path d="M16.7667 28.98L20.9919 13.02H25.5692L21.344 28.98H16.7667Z" fill="white"/>
    <path d="M25.5692 28.98L29.7944 13.02H34.3717L30.1465 28.98H25.5692Z" fill="white"/>
</svg>